<svg xmlns="http://www.w3.org/2000/svg" viewBox="0 0 26 26" width="208" height="208" shape-rendering="crispEdges"><rect x="12" y="1" width="2" height="1" fill="#3a0f3f"/><rect x="11" y="2" width="1" height="1" fill="#3a0f3f"/><rect x="12" y="2" width="2" height="1" fill="#ff9ecb"/><rect x="14" y="2" width="1" height="1" fill="#3a0f3f"/><rect x="10" y="3" width="1" height="1" fill="#3a0f3f"/><rect x="11" y="3" width="4" height="1" fill="#ff9ecb"/><rect x="15" y="3" width="1" height="1" fill="#3a0f3f"/><rect x="10" y="4" width="1" height="1" fill="#3a0f3f"/><rect x="11" y="4" width="4" height="1" fill="#ff9ecb"/><rect x="15" y="4" width="1" height="1" fill="#3a0f3f"/><rect x="9" y="5" width="1" height="1" fill="#3a0f3f"/><rect x="10" y="5" width="6" height="1" fill="#ff9ecb"/><rect x="16" y="5" width="1" height="1" fill="#3a0f3f"/><rect x="9" y="6" width="1" height="1" fill="#3a0f3f"/><rect x="10" y="6" width="6" height="1" fill="#ff9ecb"/><rect x="16" y="6" width="1" height="1" fill="#3a0f3f"/><rect x="8" y="7" width="1" height="1" fill="#3a0f3f"/><rect x="9" y="7" width="8" height="1" fill="#ff9ecb"/><rect x="17" y="7" width="1" height="1" fill="#3a0f3f"/><rect x="3" y="8" width="6" height="1" fill="#3a0f3f"/><rect x="9" y="8" width="1" height="1" fill="#ffd3e6"/><rect x="10" y="8" width="7" height="1" fill="#ff9ecb"/><rect x="17" y="8" width="6" height="1" fill="#3a0f3f"/><rect x="1" y="9" width="2" height="1" fill="#3a0f3f"/><rect x="3" y="9" width="5" height="1" fill="#ff9ecb"/><rect x="8" y="9" width="1" height="1" fill="#ffd3e6"/><rect x="9" y="9" width="14" height="1" fill="#ff9ecb"/><rect x="23" y="9" width="2" height="1" fill="#3a0f3f"/><rect x="0" y="10" width="1" height="1" fill="#3a0f3f"/><rect x="1" y="10" width="24" height="1" fill="#ff9ecb"/><rect x="25" y="10" width="1" height="1" fill="#3a0f3f"/><rect x="1" y="11" width="1" height="1" fill="#3a0f3f"/><rect x="2" y="11" width="6" height="1" fill="#ff9ecb"/><rect x="8" y="11" width="3" height="1" fill="#3a0f3f"/><rect x="11" y="11" width="5" height="1" fill="#ff9ecb"/><rect x="16" y="11" width="3" height="1" fill="#3a0f3f"/><rect x="19" y="11" width="5" height="1" fill="#ff9ecb"/><rect x="24" y="11" width="1" height="1" fill="#3a0f3f"/><rect x="1" y="12" width="1" height="1" fill="#3a0f3f"/><rect x="2" y="12" width="5" height="1" fill="#ff9ecb"/><rect x="7" y="12" width="1" height="1" fill="#3a0f3f"/><rect x="8" y="12" width="1" height="1" fill="#ffe3f0"/><rect x="9" y="12" width="2" height="1" fill="#ff9ecb"/><rect x="11" y="12" width="1" height="1" fill="#3a0f3f"/><rect x="12" y="12" width="3" height="1" fill="#ff9ecb"/><rect x="15" y="12" width="1" height="1" fill="#3a0f3f"/><rect x="16" y="12" width="1" height="1" fill="#ffe3f0"/><rect x="17" y="12" width="2" height="1" fill="#ff9ecb"/><rect x="19" y="12" width="1" height="1" fill="#3a0f3f"/><rect x="20" y="12" width="4" height="1" fill="#ff9ecb"/><rect x="24" y="12" width="1" height="1" fill="#3a0f3f"/><rect x="2" y="13" width="1" height="1" fill="#3a0f3f"/><rect x="3" y="13" width="3" height="1" fill="#ff9ecb"/><rect x="6" y="13" width="1" height="1" fill="#3a0f3f"/><rect x="7" y="13" width="5" height="1" fill="#ff9ecb"/><rect x="12" y="13" width="3" height="1" fill="#3a0f3f"/><rect x="15" y="13" width="5" height="1" fill="#ff9ecb"/><rect x="20" y="13" width="1" height="1" fill="#3a0f3f"/><rect x="21" y="13" width="2" height="1" fill="#ff9ecb"/><rect x="23" y="13" width="1" height="1" fill="#3a0f3f"/><rect x="3" y="14" width="1" height="1" fill="#3a0f3f"/><rect x="4" y="14" width="2" height="1" fill="#ff9ecb"/><rect x="6" y="14" width="1" height="1" fill="#3a0f3f"/><rect x="7" y="14" width="1" height="1" fill="#ff9ecb"/><rect x="8" y="14" width="3" height="1" fill="#3a1233"/><rect x="11" y="14" width="1" height="1" fill="#ff9ecb"/><rect x="12" y="14" width="1" height="1" fill="#3a0f3f"/><rect x="13" y="14" width="1" height="1" fill="#ff9ecb"/><rect x="14" y="14" width="1" height="1" fill="#3a0f3f"/><rect x="15" y="14" width="1" height="1" fill="#ff9ecb"/><rect x="16" y="14" width="3" height="1" fill="#3a1233"/><rect x="19" y="14" width="1" height="1" fill="#ff9ecb"/><rect x="20" y="14" width="1" height="1" fill="#3a0f3f"/><rect x="21" y="14" width="1" height="1" fill="#ff9ecb"/><rect x="22" y="14" width="1" height="1" fill="#3a0f3f"/><rect x="4" y="15" width="1" height="1" fill="#3a0f3f"/><rect x="5" y="15" width="1" height="1" fill="#ff9ecb"/><rect x="6" y="15" width="1" height="1" fill="#3a0f3f"/><rect x="7" y="15" width="5" height="1" fill="#ff9ecb"/><rect x="12" y="15" width="1" height="1" fill="#3a0f3f"/><rect x="13" y="15" width="1" height="1" fill="#ff9ecb"/><rect x="14" y="15" width="1" height="1" fill="#3a0f3f"/><rect x="15" y="15" width="5" height="1" fill="#ff9ecb"/><rect x="20" y="15" width="2" height="1" fill="#3a0f3f"/><rect x="5" y="16" width="1" height="1" fill="#3a0f3f"/><rect x="6" y="16" width="1" height="1" fill="#ff9ecb"/><rect x="7" y="16" width="1" height="1" fill="#3a0f3f"/><rect x="8" y="16" width="3" height="1" fill="#ff9ecb"/><rect x="11" y="16" width="1" height="1" fill="#3a0f3f"/><rect x="12" y="16" width="3" height="1" fill="#ff9ecb"/><rect x="15" y="16" width="1" height="1" fill="#3a0f3f"/><rect x="16" y="16" width="3" height="1" fill="#ff9ecb"/><rect x="19" y="16" width="2" height="1" fill="#3a0f3f"/><rect x="5" y="17" width="1" height="1" fill="#3a0f3f"/><rect x="6" y="17" width="2" height="1" fill="#ff9ecb"/><rect x="8" y="17" width="3" height="1" fill="#3a0f3f"/><rect x="11" y="17" width="5" height="1" fill="#ff9ecb"/><rect x="16" y="17" width="3" height="1" fill="#3a0f3f"/><rect x="19" y="17" width="1" height="1" fill="#ff9ecb"/><rect x="20" y="17" width="1" height="1" fill="#3a0f3f"/><rect x="5" y="18" width="1" height="1" fill="#3a0f3f"/><rect x="6" y="18" width="2" height="1" fill="#e8458a"/><rect x="8" y="18" width="5" height="1" fill="#ff9ecb"/><rect x="13" y="18" width="1" height="1" fill="#c9245a"/><rect x="14" y="18" width="5" height="1" fill="#ff9ecb"/><rect x="19" y="18" width="2" height="1" fill="#e8458a"/><rect x="4" y="19" width="1" height="1" fill="#3a0f3f"/><rect x="5" y="19" width="16" height="1" fill="#ff9ecb"/><rect x="21" y="19" width="1" height="1" fill="#3a0f3f"/><rect x="4" y="20" width="1" height="1" fill="#3a0f3f"/><rect x="5" y="20" width="6" height="1" fill="#ff9ecb"/><rect x="11" y="20" width="4" height="1" fill="#e0578f"/><rect x="15" y="20" width="6" height="1" fill="#ff9ecb"/><rect x="21" y="20" width="1" height="1" fill="#3a0f3f"/><rect x="4" y="21" width="1" height="1" fill="#3a0f3f"/><rect x="5" y="21" width="4" height="1" fill="#ff9ecb"/><rect x="9" y="21" width="8" height="1" fill="#e0578f"/><rect x="17" y="21" width="4" height="1" fill="#ff9ecb"/><rect x="21" y="21" width="1" height="1" fill="#3a0f3f"/><rect x="4" y="22" width="1" height="1" fill="#3a0f3f"/><rect x="5" y="22" width="6" height="1" fill="#e0578f"/><rect x="11" y="22" width="4" height="1" fill="#3a0f3f"/><rect x="15" y="22" width="6" height="1" fill="#e0578f"/><rect x="21" y="22" width="1" height="1" fill="#3a0f3f"/><rect x="4" y="23" width="1" height="1" fill="#3a0f3f"/><rect x="5" y="23" width="4" height="1" fill="#e0578f"/><rect x="9" y="23" width="2" height="1" fill="#3a0f3f"/><rect x="15" y="23" width="2" height="1" fill="#3a0f3f"/><rect x="17" y="23" width="4" height="1" fill="#e0578f"/><rect x="21" y="23" width="1" height="1" fill="#3a0f3f"/><rect x="5" y="24" width="4" height="1" fill="#3a0f3f"/><rect x="17" y="24" width="4" height="1" fill="#3a0f3f"/></svg>
